<svg width="39" height="37" viewBox="0 0 39 37" fill="none" xmlns="http://www.w3.org/2000/svg">
<path d="M19.5 0C22.0859 0 24.5658 0.97455 26.3943 2.70926C28.2228 4.44397 29.25 6.79675 29.25 9.25C29.25 11.7033 28.2228 14.056 26.3943 15.7907C24.5658 17.5254 22.0859 18.5 19.5 18.5C16.9141 18.5 14.4342 17.5254 12.6057 15.7907C10.7772 14.056 9.75 11.7033 9.75 9.25C9.75 6.79675 10.7772 4.44397 12.6057 2.70926C14.4342 0.97455 16.9141 0 19.5 0ZM19.5 23.125C30.2738 23.125 39 27.2644 39 32.375V37H0V32.375C0 27.2644 8.72625 23.125 19.5 23.125Z" fill="white"/>
</svg>
